<svg width="130" height="24" viewBox="0 0 130 24" fill="none" xmlns="http://www.w3.org/2000/svg">
<path d="M120.86 24C119.816 24 118.863 23.8422 118.003 23.5265C117.143 23.2218 116.398 22.7918 115.767 22.2367C115.146 21.6816 114.667 21.0395 114.33 20.3102L114.983 19.249V23.5102H110.836V0H115.587V10.7755L114.526 9.68163C115.277 8.66939 116.169 7.89116 117.203 7.34694C118.248 6.80272 119.44 6.53061 120.779 6.53061C122.411 6.53061 123.848 6.91701 125.089 7.6898C126.341 8.46259 127.32 9.51292 128.028 10.8408C128.735 12.1578 129.089 13.6327 129.089 15.2653C129.089 16.5497 128.882 17.7306 128.469 18.8082C128.066 19.8748 127.494 20.7946 126.754 21.5673C126.014 22.3401 125.143 22.9388 124.142 23.3633C123.152 23.7878 122.058 24 120.86 24ZM119.979 19.8694C120.828 19.8694 121.584 19.6844 122.248 19.3143C122.912 18.9333 123.435 18.4 123.816 17.7143C124.196 17.0286 124.387 16.2122 124.387 15.2653C124.387 14.3184 124.196 13.502 123.816 12.8163C123.445 12.1306 122.923 11.6027 122.248 11.2327C121.584 10.8517 120.828 10.6612 119.979 10.6612C119.13 10.6612 118.373 10.8517 117.709 11.2327C117.045 11.6027 116.523 12.1306 116.142 12.8163C115.772 13.502 115.587 14.3184 115.587 15.2653C115.587 16.2122 115.777 17.0286 116.158 17.7143C116.539 18.4 117.062 18.9333 117.726 19.3143C118.39 19.6844 119.141 19.8694 119.979 19.8694Z" fill="#EB872B"/>
<path d="M96.3765 24.0002C94.7983 24.0002 93.3888 23.6355 92.148 22.9063C90.9071 22.1661 89.9275 21.1376 89.2092 19.8206C88.5017 18.5036 88.1479 16.9852 88.1479 15.2655C88.1479 13.9702 88.3493 12.7893 88.752 11.7226C89.1656 10.6559 89.7425 9.73621 90.4826 8.96342C91.2228 8.17974 92.0935 7.5811 93.0949 7.1675C94.1071 6.74301 95.201 6.53076 96.3765 6.53076C97.9439 6.53076 99.2663 6.86818 100.344 7.54301C101.432 8.21784 102.227 9.09947 102.728 10.1879L102.058 11.2165V7.02056H106.205V23.5104H102.058V19.3144L102.728 20.343C102.227 21.4314 101.432 22.3131 100.344 22.9879C99.2663 23.6627 97.9439 24.0002 96.3765 24.0002ZM97.1439 19.8695C97.9711 19.8695 98.7112 19.6845 99.3643 19.3144C100.017 18.9335 100.529 18.4002 100.899 17.7144C101.28 17.0287 101.47 16.2124 101.47 15.2655C101.47 14.3185 101.28 13.5022 100.899 12.8165C100.529 12.1308 100.017 11.6029 99.3643 11.2328C98.7112 10.8519 97.9711 10.6614 97.1439 10.6614C96.3275 10.6614 95.5929 10.8519 94.9398 11.2328C94.2867 11.6029 93.7697 12.1308 93.3888 12.8165C93.0187 13.5022 92.8337 14.3185 92.8337 15.2655C92.8337 16.2124 93.0187 17.0287 93.3888 17.7144C93.7697 18.4002 94.2867 18.9335 94.9398 19.3144C95.5929 19.6845 96.3275 19.8695 97.1439 19.8695Z" fill="#EB872B"/>
<path d="M80.0962 23.5102V0H84.8635V23.5102H80.0962Z" fill="#EB872B"/>
<path d="M63.0044 23.5102V0H67.7717V23.5102H63.0044Z" fill="#EB872B"/>
<path d="M48.3536 24C46.7645 24 45.3495 23.6354 44.1087 22.9061C42.8787 22.166 41.9046 21.1374 41.1862 19.8204C40.4787 18.5034 40.125 16.985 40.125 15.2653C40.125 14.0354 40.3264 12.8925 40.7291 11.8367C41.1427 10.781 41.7196 9.85578 42.4597 9.06122C43.1998 8.26667 44.076 7.64626 45.0883 7.2C46.1005 6.75374 47.2162 6.53061 48.4352 6.53061C49.774 6.53061 50.9604 6.79728 51.9944 7.33061C53.0393 7.85306 53.9372 8.62041 54.6883 9.63265L53.6107 10.7265V0H58.3781V23.5102H54.2311V19.3306L54.8842 20.4082C54.3726 21.4639 53.5617 22.3293 52.4515 23.0041C51.3413 23.668 49.9753 24 48.3536 24ZM49.2352 19.8694C50.0733 19.8694 50.8243 19.6844 51.4883 19.3143C52.1522 18.9333 52.6747 18.4 53.0556 17.7143C53.4366 17.0286 53.627 16.2122 53.627 15.2653C53.627 14.3184 53.4366 13.502 53.0556 12.8163C52.6855 12.1306 52.1685 11.6027 51.5046 11.2327C50.8406 10.8517 50.0842 10.6612 49.2352 10.6612C48.3862 10.6612 47.6298 10.8517 46.9658 11.2327C46.3019 11.6027 45.7794 12.1306 45.3985 12.8163C45.0175 13.502 44.827 14.3184 44.827 15.2653C44.827 16.2122 45.0175 17.0286 45.3985 17.7143C45.7794 18.4 46.3019 18.9333 46.9658 19.3143C47.6298 19.6844 48.3862 19.8694 49.2352 19.8694Z" fill="#EB872B"/>
<path d="M28.9547 24.0002C27.1805 24.0002 25.6077 23.6029 24.2363 22.8083C22.8649 22.0138 21.7873 20.958 21.0037 19.641C20.2309 18.3131 19.8445 16.8546 19.8445 15.2655C19.8445 14.1008 20.0676 12.9961 20.5139 11.9512C20.9601 10.8954 21.5914 9.96478 22.4077 9.15933C23.2241 8.34301 24.1873 7.70083 25.2975 7.2328C26.4077 6.76478 27.6268 6.53076 28.9547 6.53076C30.7288 6.53076 32.2962 6.92804 33.6567 7.7226C35.0282 8.51716 36.1003 9.57838 36.8731 10.9063C37.6567 12.2233 38.0486 13.6763 38.0486 15.2655C38.0486 16.4192 37.8254 17.524 37.3792 18.5797C36.9329 19.6355 36.3016 20.5716 35.4853 21.3879C34.6799 22.1933 33.722 22.8301 32.6118 23.2981C31.5016 23.7661 30.2826 24.0002 28.9547 24.0002ZM28.9547 19.8695C29.7928 19.8695 30.5438 19.6845 31.2077 19.3144C31.8717 18.9335 32.3941 18.4002 32.7751 17.7144C33.156 17.0178 33.3465 16.2015 33.3465 15.2655C33.3465 14.3185 33.156 13.5022 32.7751 12.8165C32.405 12.1308 31.888 11.6029 31.2241 11.2328C30.5601 10.8519 29.8037 10.6614 28.9547 10.6614C28.1057 10.6614 27.3438 10.8519 26.669 11.2328C26.005 11.6029 25.4826 12.1308 25.1016 12.8165C24.7316 13.5022 24.5465 14.3185 24.5465 15.2655C24.5465 16.2124 24.737 17.0287 25.118 17.7144C25.4989 18.4002 26.0214 18.9335 26.6853 19.3144C27.3492 19.6845 28.1057 19.8695 28.9547 19.8695Z" fill="#EB872B"/>
<path d="M0.249268 23.5102V0H5.01661V10.6122L4.0207 9.45306C4.73906 8.52789 5.59893 7.80952 6.60029 7.29796C7.60165 6.78639 8.68464 6.53061 9.84927 6.53061C11.384 6.53061 12.6574 6.83537 13.6697 7.4449C14.6928 8.05442 15.4547 8.84898 15.9554 9.82857C16.467 10.8082 16.7227 11.8531 16.7227 12.9633V23.5102H11.9554V14.3184C11.9554 13.2952 11.6506 12.468 11.0411 11.8367C10.4316 11.1946 9.59349 10.868 8.52682 10.8571C7.80845 10.8571 7.1826 11.0095 6.64927 11.3143C6.12682 11.6082 5.7241 12.0381 5.4411 12.6041C5.15811 13.1592 5.01661 13.8122 5.01661 14.5633V23.5102H0.249268Z" fill="#EB872B"/>
</svg>
