<svg width="122" height="18" viewBox="0 0 122 18" fill="none" xmlns="http://www.w3.org/2000/svg">
<path d="M115.779 17.9999C115.002 17.9999 114.29 17.8856 113.644 17.6571C112.998 17.4285 112.442 17.106 111.975 16.6897C111.517 16.2734 111.166 15.7918 110.92 15.2448L111.472 14.351V17.6326H108V0H112.012V7.95915L111.104 7.04079C111.677 6.29793 112.348 5.73467 113.117 5.351C113.885 4.96732 114.748 4.77549 115.705 4.77549C116.932 4.77549 118.02 5.06936 118.969 5.65712C119.918 6.23671 120.658 7.02446 121.19 8.02037C121.73 9.01629 122 10.1387 122 11.3877C122 12.3755 121.844 13.2775 121.534 14.0938C121.223 14.902 120.785 15.5999 120.221 16.1877C119.665 16.7673 119.01 17.2162 118.258 17.5346C117.505 17.8448 116.679 17.9999 115.779 17.9999ZM115.031 14.5469C115.611 14.5469 116.127 14.4203 116.577 14.1673C117.035 13.9061 117.395 13.5387 117.656 13.0652C117.926 12.5918 118.061 12.0326 118.061 11.3877C118.061 10.7346 117.93 10.1755 117.669 9.71016C117.407 9.23669 117.047 8.87343 116.589 8.62037C116.131 8.35915 115.611 8.22853 115.031 8.22853C114.45 8.22853 113.93 8.35915 113.472 8.62037C113.022 8.87343 112.667 9.23669 112.405 9.71016C112.143 10.1755 112.012 10.7346 112.012 11.3877C112.012 12.0326 112.143 12.5918 112.405 13.0652C112.667 13.5387 113.027 13.9061 113.485 14.1673C113.943 14.4203 114.458 14.5469 115.031 14.5469Z" fill="#EB872B"/>
<path d="M97.0382 17.9998C95.8603 17.9998 94.8051 17.7264 93.8726 17.1794C92.9401 16.6243 92.2039 15.8529 91.6641 14.8651C91.1242 13.8692 90.8542 12.71 90.8542 11.3876C90.8542 10.3917 91.0097 9.48966 91.3205 8.6815C91.6313 7.86517 92.0649 7.16722 92.6211 6.58763C93.1773 6.00804 93.8317 5.56314 94.5843 5.25294C95.3368 4.93457 96.1548 4.77539 97.0382 4.77539C98.1998 4.77539 99.1896 5.02845 100.008 5.53457C100.826 6.03253 101.41 6.69783 101.762 7.53048L101.21 8.39987V5.14274H104.67V17.6325H101.21V14.3753L101.762 15.2325C101.41 16.0651 100.826 16.7345 100.008 17.2406C99.1896 17.7468 98.1998 17.9998 97.0382 17.9998ZM97.7254 14.5468C98.2816 14.5468 98.7806 14.4202 99.2223 14.1672C99.6722 13.906 100.028 13.5386 100.29 13.0651C100.552 12.5917 100.682 12.0325 100.682 11.3876C100.682 10.7345 100.552 10.1754 100.29 9.71006C100.028 9.2366 99.6722 8.87333 99.2223 8.62027C98.7806 8.35905 98.2816 8.22844 97.7254 8.22844C97.1691 8.22844 96.6702 8.35905 96.2284 8.62027C95.7867 8.87333 95.435 9.2366 95.1732 9.71006C94.9115 10.1754 94.7806 10.7345 94.7806 11.3876C94.7806 12.0325 94.9115 12.5917 95.1732 13.0651C95.435 13.5386 95.7867 13.906 96.2284 14.1672C96.6702 14.4202 97.1691 14.5468 97.7254 14.5468Z" fill="#EB872B"/>
<path d="M84.467 17.6326V0H88.4915V17.6326H84.467Z" fill="#EB872B"/>
<path d="M71.4304 17.6326V0H75.4549V17.6326H71.4304Z" fill="#EB872B"/>
<path d="M60.3136 17.9999C59.1275 17.9999 58.0641 17.7265 57.1234 17.1795C56.1827 16.6244 55.4425 15.853 54.9026 14.8652C54.3627 13.8693 54.0928 12.7101 54.0928 11.3877C54.0928 10.4489 54.2482 9.57955 54.559 8.77955C54.8699 7.97956 55.3034 7.2816 55.8596 6.68569C56.424 6.08161 57.0907 5.61222 57.8596 5.27753C58.6285 4.94283 59.471 4.77549 60.3872 4.77549C61.3442 4.77549 62.2072 4.96324 62.9761 5.33875C63.745 5.71426 64.4158 6.27344 64.9884 7.01629L64.0681 7.93466V0H68.0926V17.6326H64.6203V14.3877L65.1724 15.2938C64.8125 16.0938 64.2113 16.7469 63.3688 17.253C62.5262 17.7509 61.5078 17.9999 60.3136 17.9999ZM61.062 14.5469C61.6346 14.5469 62.15 14.4203 62.608 14.1673C63.0661 13.9061 63.426 13.5387 63.6878 13.0652C63.9495 12.5918 64.0804 12.0326 64.0804 11.3877C64.0804 10.7346 63.9495 10.1755 63.6878 9.71016C63.4342 9.23669 63.0784 8.87343 62.6203 8.62037C62.1622 8.35915 61.6428 8.22853 61.062 8.22853C60.4813 8.22853 59.9618 8.35915 59.5038 8.62037C59.0457 8.87343 58.6858 9.23669 58.424 9.71016C58.1623 10.1755 58.0314 10.7346 58.0314 11.3877C58.0314 12.0326 58.1623 12.5918 58.424 13.0652C58.694 13.5387 59.058 13.9061 59.516 14.1673C59.9741 14.4203 60.4894 14.5469 61.062 14.5469Z" fill="#EB872B"/>
<path d="M45.6529 17.9998C44.2868 17.9998 43.0803 17.7019 42.0333 17.1059C40.9862 16.5019 40.1642 15.6978 39.567 14.6937C38.9781 13.6896 38.6836 12.5876 38.6836 11.3876C38.6836 10.5141 38.8513 9.68149 39.1867 8.88966C39.5302 8.08966 40.0128 7.38354 40.6345 6.7713C41.2562 6.15089 41.9924 5.66518 42.8431 5.31416C43.6938 4.95498 44.6304 4.77539 45.6529 4.77539C47.0189 4.77539 48.2254 5.07743 49.2725 5.68151C50.3195 6.27742 51.1375 7.07742 51.7264 8.0815C52.3154 9.08558 52.6098 10.1876 52.6098 11.3876C52.6098 12.2611 52.4422 13.0978 52.1068 13.8978C51.7714 14.6896 51.2929 15.3917 50.6712 16.0039C50.0495 16.6162 49.3134 17.1019 48.4626 17.4611C47.6119 17.8202 46.6753 17.9998 45.6529 17.9998ZM45.6529 14.5468C46.2254 14.5468 46.7408 14.4202 47.1989 14.1672C47.6569 13.906 48.0168 13.5386 48.2786 13.0651C48.5404 12.5917 48.6712 12.0325 48.6712 11.3876C48.6712 10.7345 48.5404 10.1754 48.2786 9.71006C48.025 9.2366 47.6692 8.87333 47.2111 8.62027C46.7531 8.35905 46.2336 8.22844 45.6529 8.22844C45.0721 8.22844 44.5527 8.35905 44.0946 8.62027C43.6365 8.87333 43.2766 9.2366 43.0148 9.71006C42.7531 10.1754 42.6222 10.7345 42.6222 11.3876C42.6222 12.0325 42.7531 12.5917 43.0148 13.0651C43.2848 13.5386 43.6488 13.906 44.1069 14.1672C44.5649 14.4202 45.0803 14.5468 45.6529 14.5468Z" fill="#EB872B"/>
<path d="M23.6211 17.6326V0H27.6456V7.93466L26.8112 6.94283C27.3511 6.2816 27.9932 5.75508 28.7376 5.36324C29.482 4.97141 30.3041 4.77549 31.2038 4.77549C32.3736 4.77549 33.347 5.00814 34.1241 5.47344C34.9093 5.93875 35.4942 6.54691 35.8786 7.29793C36.2631 8.04894 36.4553 8.8571 36.4553 9.72241V17.6326H32.4308V10.8489C32.4308 10.1306 32.2222 9.5469 31.8051 9.09792C31.3879 8.64894 30.803 8.42037 30.0505 8.41221C29.5433 8.40405 29.1098 8.50609 28.7499 8.71833C28.3981 8.92241 28.1241 9.22037 27.9278 9.6122C27.7397 9.99587 27.6456 10.453 27.6456 10.9836V17.6326H23.6211Z" fill="#EB872B"/>
<path d="M10.5513 13.4785C10.2376 13.4785 9.93057 13.4448 9.63028 13.3774C9.33 13.31 9.05437 13.2017 8.80338 13.0525L9.26725 11.0745C9.41515 11.1563 9.5765 11.2213 9.75129 11.2694C9.92608 11.3176 10.0897 11.3416 10.2421 11.3416C10.4886 11.3416 10.697 11.2863 10.8673 11.1756C11.0421 11.0649 11.1676 10.882 11.2437 10.627L11.3446 10.2804L8.68237 2.88818H11.0757L12.595 7.93427L14.0673 2.88818H16.4001L13.5564 10.9807C13.3233 11.6063 13.0522 12.0996 12.7429 12.4606C12.4382 12.8263 12.0998 13.0862 11.7278 13.2402C11.3558 13.3991 10.9636 13.4785 10.5513 13.4785Z" fill="#EB872B"/>
<path d="M4.28838 10.5903C3.85999 10.5903 3.46768 10.523 3.11144 10.3886C2.75521 10.2541 2.44857 10.0644 2.19154 9.81942C1.93902 9.57448 1.74511 9.29111 1.60983 8.96932L1.91421 8.44341V10.3742H0V0H2.21183V4.68278L1.71129 4.14246C2.02695 3.7054 2.39671 3.374 2.82059 3.14827C3.24447 2.92253 3.72021 2.80967 4.2478 2.80967C4.9242 2.80967 5.52394 2.98257 6.04702 3.32837C6.57011 3.66937 6.9782 4.13285 7.27131 4.7188C7.56893 5.30475 7.71773 5.96514 7.71773 6.69997C7.71773 7.28112 7.63206 7.81183 7.4607 8.29212C7.28935 8.7676 7.0481 9.17824 6.73695 9.52405C6.43032 9.86505 6.06957 10.1292 5.65471 10.3165C5.23985 10.499 4.78441 10.5903 4.28838 10.5903ZM3.87578 8.55867C4.19594 8.55867 4.48003 8.48423 4.72804 8.33534C4.98057 8.18165 5.17898 7.96552 5.32328 7.68696C5.47208 7.40839 5.54649 7.0794 5.54649 6.69997C5.54649 6.31574 5.47434 5.98675 5.33004 5.71299C5.18574 5.43442 4.98733 5.22069 4.73481 5.07181C4.48228 4.91812 4.19594 4.84127 3.87578 4.84127C3.55561 4.84127 3.26927 4.91812 3.01675 5.07181C2.76873 5.22069 2.57258 5.43442 2.42828 5.71299C2.28398 5.98675 2.21183 6.31574 2.21183 6.69997C2.21183 7.0794 2.28398 7.40839 2.42828 7.68696C2.57258 7.96552 2.77099 8.18165 3.02351 8.33534C3.27604 8.48423 3.56012 8.55867 3.87578 8.55867Z" fill="#EB872B"/>
</svg>
